<svg viewBox="0 0 40 40" xmlns="http://www.w3.org/2000/svg" xmlns:xlink="http://www.w3.org/1999/xlink" width="40.000000" height="40.000000" fill="none" customFrame="#000000">
	<defs>
		<linearGradient id="paint_linear_0" x1="0" x2="40" y1="20" y2="20" gradientUnits="userSpaceOnUse">
			<stop stop-color="rgb(0,49.4389,128.971)" offset="0" stop-opacity="1" />
			<stop stop-color="rgb(34.4608,135.904,237.346)" offset="1" stop-opacity="1" />
		</linearGradient>
	</defs>
	<g id="Group 1632526102">
		<rect id="Rectangle 4751" width="40.000000" height="40.000000" x="0.000000" y="0.000000" rx="12.000000" fill="url(#paint_linear_0)" />
		<path id="Vector" d="M26.7871 27.3576L25.0168 29.2194C24.0391 30.2477 24.0391 31.9148 25.0168 32.9431C25.9945 33.9714 27.5797 33.9714 28.5575 32.9431C29.5352 31.9148 29.5352 30.2477 28.5575 29.2194L26.7871 27.3576Z" fill="rgb(67,160,253)" fill-rule="evenodd" />
		<path id="Vector" d="M9.00235 18.1066C8.88057 12.5844 13.5081 7.88466 19.4753 8.00216C25.5642 8.00216 29.9482 12.4669 29.7046 18.1066C29.7046 21.0849 28.4833 23.8275 26.3069 25.692C24.8751 23.9728 24.4694 22.0063 24.8894 19.7278C25.0163 19.2245 25.0771 18.6875 25.0771 18.1066C25.0771 16.4617 24.5899 15.1693 23.4939 13.9943C22.3979 12.9369 21.0584 12.3494 19.4753 12.3494C17.8921 12.3494 16.5526 12.8194 15.4566 13.9943C14.3606 15.1693 13.8735 16.4617 13.8735 18.1066C13.8735 19.7515 14.3606 21.0439 15.4566 22.2189C16.5526 23.2763 17.7704 23.8638 19.4753 23.8638L19.5162 23.8639C19.5432 23.8641 19.5701 23.8642 19.597 23.8638C21.9108 23.8638 23.2504 24.5687 24.3464 25.5087C24.5062 25.6286 24.6558 25.7536 24.7983 25.8818C24.9913 26.0552 25.1715 26.2345 25.3474 26.4152C25.142 26.5508 24.93 26.6796 24.7117 26.8011C23.5856 27.4697 22.3363 27.9005 21.0075 28.0935C20.4683 28.1719 19.916 28.211 19.3535 28.211C17.405 28.211 15.5784 27.7411 13.9952 26.8011C10.829 25.0387 9.00235 21.7489 9.00235 18.1066Z" fill="rgb(67,160,253)" fill-rule="evenodd" />
		<path id="Vector" d="M9.00235 18.1066C8.88057 12.5844 13.5081 7.88466 19.4753 8.00216C25.5642 8.00216 29.9482 12.4669 29.7046 18.1066C29.7046 21.0849 28.4833 23.8275 26.3069 25.692C24.8751 23.9728 24.4694 22.0063 24.8894 19.7278C25.0163 19.2245 25.0771 18.6875 25.0771 18.1066C25.0771 16.4617 24.5899 15.1693 23.4939 13.9943C22.3979 12.9369 21.0584 12.3494 19.4753 12.3494C17.8921 12.3494 16.5526 12.8194 15.4566 13.9943C14.3606 15.1693 13.8735 16.4617 13.8735 18.1066C13.8735 19.7515 14.3606 21.0439 15.4566 22.2189C16.5526 23.2763 17.7704 23.8638 19.4753 23.8638L19.5162 23.8639C19.5432 23.8641 19.5701 23.8642 19.597 23.8638C21.9108 23.8638 23.2504 24.5687 24.3464 25.5087C24.5062 25.6286 24.6558 25.7536 24.7983 25.8818C24.9913 26.0552 25.1715 26.2345 25.3474 26.4152C25.142 26.5508 24.93 26.6796 24.7117 26.8011C23.5856 27.4697 22.3363 27.9005 21.0075 28.0935C20.4683 28.1719 19.916 28.211 19.3535 28.211C17.405 28.211 15.5784 27.7411 13.9952 26.8011C10.829 25.0387 9.00235 21.7489 9.00235 18.1066Z" fill="rgb(255,255,255)" fill-rule="evenodd" />
	</g>
</svg>
