<svg viewBox="0 0 187 50" xmlns="http://www.w3.org/2000/svg" xmlns:xlink="http://www.w3.org/1999/xlink" width="187.000000" height="50.000000" fill="none">
	<defs>
		<linearGradient id="paint_linear_1" x1="-4.15223411e-14" x2="187" y1="24.9227524" y2="24.9227524" gradientUnits="userSpaceOnUse">
			<stop stop-color="rgb(51.3371,95.9194,164.279)" offset="0" stop-opacity="1" />
			<stop stop-color="rgb(1,20,29)" offset="1" stop-opacity="1" />
		</linearGradient>
	</defs>
	<rect id="icon" width="187.000000" height="50.000000" x="0.000000" y="0.000000" />
	<g id="Group 1588">
		<path id="Vector" d="M68.1348 39.5007L65.2541 42.4343C63.6631 44.0545 63.6631 46.6813 65.2541 48.3015C66.8451 49.9217 69.4246 49.9217 71.0155 48.3015C72.6065 46.6813 72.6065 44.0545 71.0155 42.4343L68.1348 39.5007Z" fill="rgb(67,160,253)" fill-rule="evenodd" />
		<path id="Vector" d="M56.2366 9.0034C46.5267 8.81827 38.9965 16.2234 39.1947 24.9244C39.1947 30.6634 42.1671 35.847 47.3193 38.624C49.8954 40.105 52.8678 40.8455 56.0384 40.8455C56.9537 40.8455 57.8525 40.7838 58.7299 40.6604C60.8921 40.3563 62.9251 39.6775 64.7576 38.624C65.1128 38.4325 65.4577 38.2296 65.792 38.0158C65.5057 37.7313 65.2125 37.4487 64.8985 37.1754C64.6665 36.9735 64.4232 36.7766 64.1631 36.5875C62.3796 35.1065 60.1998 33.9958 56.4348 33.9958C56.3909 33.9964 56.3472 33.9962 56.3034 33.996L56.3032 33.996L56.2366 33.9958C53.4623 33.9958 51.4807 33.0701 49.6972 31.4039C47.9138 29.5527 47.1211 27.5163 47.1211 24.9244C47.1211 22.3327 47.9138 20.2962 49.6972 18.445C51.4807 16.5937 53.6605 15.8532 56.2366 15.8532C58.8127 15.8532 60.9925 16.7788 62.7759 18.445C64.5594 20.2962 65.3521 22.3327 65.3521 24.9244C65.3521 25.8398 65.2532 26.6858 65.0468 27.4789C64.3633 31.069 65.0234 34.1676 67.3533 36.8764C70.8948 33.9385 72.8822 29.6172 72.8822 24.9244C73.2785 16.0383 66.1447 9.0034 56.2366 9.0034ZM27.8019 33.0032L30.8151 38.9895L38.8102 38.9895L24.2664 10.8661L14.5036 10.8661L0 38.9895L7.95488 38.9895L10.9681 33.0032L27.8019 33.0032ZM104.237 10.8661L112.353 10.8661L97.8896 38.9895L88.0062 38.9895L73.5428 10.8661L81.6584 10.8661L92.9479 33.646L104.237 10.8661ZM121.313 16.6113L143.812 16.6113L143.812 10.8661L114.082 10.8661L114.082 38.9895L143.812 38.9895L143.812 33.2443L121.313 33.2443L121.313 27.5392L143.812 27.5392L143.812 22.3163L121.313 22.3163L121.313 16.6113ZM145.538 38.9895L161.368 24.9278L145.538 10.8661L155.502 10.8661L166.269 20.5084L176.996 10.8661L187 10.8661L171.171 24.9278L187 38.9895L176.996 38.9895L166.269 29.3472L155.502 38.9895L145.538 38.9895ZM25.1101 27.6196L13.6599 27.6196L19.4051 16.2096L25.1101 27.6196Z" fill="rgb(24,42,66)" fill-rule="evenodd" />
		<path id="Vector" d="M56.2366 9.0034C46.5267 8.81827 38.9965 16.2234 39.1947 24.9244C39.1947 30.6634 42.1671 35.847 47.3193 38.624C49.8954 40.105 52.8678 40.8455 56.0384 40.8455C56.9537 40.8455 57.8525 40.7838 58.7299 40.6604C60.8921 40.3563 62.9251 39.6775 64.7576 38.624C65.1128 38.4325 65.4577 38.2296 65.792 38.0158C65.5057 37.7313 65.2125 37.4487 64.8985 37.1754C64.6665 36.9735 64.4232 36.7766 64.1631 36.5875C62.3796 35.1065 60.1998 33.9958 56.4348 33.9958C56.3909 33.9964 56.3472 33.9962 56.3034 33.996L56.3032 33.996L56.2366 33.9958C53.4623 33.9958 51.4807 33.0701 49.6972 31.4039C47.9138 29.5527 47.1211 27.5163 47.1211 24.9244C47.1211 22.3327 47.9138 20.2962 49.6972 18.445C51.4807 16.5937 53.6605 15.8532 56.2366 15.8532C58.8127 15.8532 60.9925 16.7788 62.7759 18.445C64.5594 20.2962 65.3521 22.3327 65.3521 24.9244C65.3521 25.8398 65.2532 26.6858 65.0468 27.4789C64.3633 31.069 65.0234 34.1676 67.3533 36.8764C70.8948 33.9385 72.8822 29.6172 72.8822 24.9244C73.2785 16.0383 66.1447 9.0034 56.2366 9.0034ZM27.8019 33.0032L30.8151 38.9895L38.8102 38.9895L24.2664 10.8661L14.5036 10.8661L0 38.9895L7.95488 38.9895L10.9681 33.0032L27.8019 33.0032ZM104.237 10.8661L112.353 10.8661L97.8896 38.9895L88.0062 38.9895L73.5428 10.8661L81.6584 10.8661L92.9479 33.646L104.237 10.8661ZM121.313 16.6113L143.812 16.6113L143.812 10.8661L114.082 10.8661L114.082 38.9895L143.812 38.9895L143.812 33.2443L121.313 33.2443L121.313 27.5392L143.812 27.5392L143.812 22.3163L121.313 22.3163L121.313 16.6113ZM145.538 38.9895L161.368 24.9278L145.538 10.8661L155.502 10.8661L166.269 20.5084L176.996 10.8661L187 10.8661L171.171 24.9278L187 38.9895L176.996 38.9895L166.269 29.3472L155.502 38.9895L145.538 38.9895ZM25.1101 27.6196L13.6599 27.6196L19.4051 16.2096L25.1101 27.6196Z" fill="url(#paint_linear_1)" fill-rule="evenodd" />
	</g>
</svg>
