<svg viewBox="0 0 58 40" xmlns="http://www.w3.org/2000/svg" xmlns:xlink="http://www.w3.org/1999/xlink" width="58.000000" height="40.000000" fill="none" customFrame="#000000">
	<g id="Сочетание 1">
		<rect id="Rectangle 4750" width="58.000000" height="40.000000" x="0.000000" y="0.000000" rx="12.000000" fill="rgb(241,242,244)" transform="matrix(-1,0,0,1,58,0)" />
		<g id="Group 1632526101">
			<path id="path3" d="M5.87145 0L0 0L0 16.1443L5.87145 16.1443L5.87145 0Z" fill="rgb(1,94,183)" fill-rule="nonzero" transform="matrix(1,0,0,-1,10.0001,22.1443)" />
			<path id="path5" d="M5.87151 0L0 0L0 16.1443L5.87151 16.1443L5.87151 0Z" fill="rgb(1,94,183)" fill-rule="nonzero" transform="matrix(1,0,0,-1,22.6636,22.1443)" />
			<path id="path7" d="M2.93576 0L0 0L0 16.1443L2.93576 16.1443L2.93576 0Z" fill="rgb(1,94,183)" fill-rule="nonzero" transform="matrix(1,0,0,-1,17.7996,22.1443)" />
			<path id="path9" d="M5.87152 0L0 0L0 16.1443L5.87152 16.1443L5.87152 0Z" fill="rgb(253,214,2)" fill-rule="nonzero" transform="matrix(1,0,0,-1,30.4628,22.1443)" />
			<path id="path11" d="M5.87145 0L0 0L0 16.1443L5.87145 16.1443L5.87145 0Z" fill="rgb(253,214,2)" fill-rule="nonzero" transform="matrix(1,0,0,-1,43.1264,22.1443)" />
			<path id="path13" d="M2.93576 0L0 0L0 16.1443L2.93576 16.1443L2.93576 0Z" fill="rgb(253,214,2)" fill-rule="nonzero" transform="matrix(1,0,0,-1,38.2624,22.1443)" />
			<path id="path15" d="M0.676011 1.5343C0.68702 1.33258 0.742262 1.16182 0.840951 1.02196C0.940295 0.881828 1.09291 0.773593 1.30006 0.69725C1.5072 0.620575 1.77928 0.582371 2.1163 0.582371C2.60719 0.582371 2.95529 0.640973 3.16046 0.758776C3.3657 0.876247 3.46826 1.03385 3.46826 1.23192C3.46826 1.37012 3.43516 1.47902 3.36957 1.55961C3.30332 1.63961 3.17999 1.70306 2.99814 1.74984C2.81695 1.79655 2.55784 1.81987 2.22082 1.81987L1.43446 1.81987L1.43446 2.40789L2.22082 2.40789C2.51761 2.40789 2.74618 2.42928 2.90791 2.47233C3.06892 2.51512 3.17999 2.57765 3.24034 2.6599C3.30076 2.74183 3.33058 2.84847 3.33058 2.97909C3.33058 3.18042 3.23451 3.34101 3.04231 3.46047C2.85011 3.57987 2.53189 3.6398 2.08904 3.6398C1.77017 3.6398 1.51172 3.60226 1.31369 3.52791C1.11631 3.45323 0.970176 3.34592 0.876665 3.2058C0.783153 3.06593 0.727321 2.89318 0.709104 2.68788L0.0220837 2.68788C0.0480992 3.16201 0.229225 3.53615 0.566247 3.81056C0.90327 4.08497 1.41303 4.22217 2.09422 4.22217C2.53058 4.22217 2.891 4.16789 3.17671 4.05959C3.46308 3.95135 3.67284 3.80956 3.80659 3.63415C3.93975 3.45881 4.00659 3.26466 4.00659 3.05178C4.00659 2.78661 3.9235 2.57864 3.75659 2.42729C3.59034 2.27626 3.37671 2.17627 3.11629 2.1279L3.11629 2.11667C3.4098 2.06438 3.65528 1.96272 3.85272 1.81136C4.05076 1.66034 4.1501 1.43922 4.1501 1.148C4.1501 0.935115 4.08129 0.742631 3.94361 0.571208C3.80659 0.399454 3.58647 0.261253 3.28386 0.156605C2.98189 0.0523568 2.591 0 2.11047 0C1.40006 0 0.874043 0.135277 0.533155 0.406032C0.192921 0.67652 0.0149409 1.05259 0 1.5343L0.676011 1.5343Z" fill="rgb(0,0,0)" fill-rule="nonzero" transform="matrix(1,0,0,-1,10.0102,29.0027)" />
			<path id="path17" d="M2.19291 2.25121C2.48642 2.25121 2.7007 2.30516 2.83576 2.4134C2.97147 2.5217 3.03969 2.67665 3.03969 2.87837C3.03969 3.07969 2.97147 3.2347 2.83576 3.34293C2.7007 3.45117 2.48642 3.50545 2.19291 3.50545L0.659759 3.50545L0.659759 2.25121L2.19291 2.25121ZM2.20981 4.08789C2.5429 4.08789 2.82147 4.03819 3.04487 3.93946C3.26826 3.84046 3.43582 3.7006 3.54814 3.51927C3.6598 3.33835 3.7157 3.1248 3.7157 2.87837C3.7157 2.63552 3.6598 2.42463 3.54814 2.24563C3.43582 2.0663 3.26826 1.92544 3.04487 1.82279C2.82147 1.7198 2.5429 1.66884 2.20981 1.66884L0.659759 1.66884L0.659759 0L0 0L0 4.08789L2.20981 4.08789Z" fill="rgb(0,0,0)" fill-rule="nonzero" transform="matrix(1,0,0,-1,15.303,28.936)" />
			<path id="path19" d="M2.20392 0.599181C2.68766 0.599181 3.0604 0.725223 3.32278 0.97724C3.58444 1.22893 3.71564 1.58267 3.71564 2.03833L3.71564 2.18377C3.71564 2.64316 3.58575 2.9975 3.32534 3.24792C3.06498 3.49795 2.69159 3.62299 2.20392 3.62299C1.70975 3.62299 1.33118 3.49695 1.06945 3.24493C0.807137 2.99291 0.676601 2.63917 0.676601 2.18377L0.676601 2.03833C0.676601 1.58267 0.807137 1.22893 1.06945 0.97724C1.33118 0.725223 1.70975 0.599181 2.20392 0.599181ZM2.1935 0C1.73505 0 1.34154 0.0839172 1.01166 0.252084C0.681778 0.419852 0.430534 0.655125 0.258452 0.957507C0.086369 1.25989 0 1.61622 0 2.02717L0 2.195C0 2.60562 0.086369 2.96228 0.258452 3.26467C0.430534 3.56705 0.681778 3.80232 1.01166 3.97009C1.34154 4.13825 1.73505 4.22217 2.1935 4.22217C2.6585 4.22217 3.05588 4.13825 3.38576 3.97009C3.71564 3.80232 3.96629 3.56705 4.13903 3.26467C4.31111 2.96228 4.39682 2.60562 4.39682 2.195L4.39682 2.02717C4.39682 1.61622 4.31111 1.25989 4.13903 0.957507C3.96629 0.655125 3.71564 0.419852 3.38576 0.252084C3.05588 0.0839172 2.6585 0 2.1935 0Z" fill="rgb(0,0,0)" fill-rule="nonzero" transform="matrix(1,0,0,-1,19.6829,29.0027)" />
			<path id="path21" d="M2.20392 0.57679C2.50457 0.57679 2.72147 0.630077 2.85522 0.736385C2.98897 0.842627 3.05588 0.992987 3.05588 1.18713C3.05588 1.38128 2.98897 1.53064 2.85522 1.63529C2.72147 1.7396 2.50457 1.79189 2.20392 1.79189L0.653862 1.79189L0.653862 0.57679L2.20392 0.57679ZM2.22082 2.35752C2.71885 2.35752 3.09356 2.25121 3.34421 2.03833C3.59552 1.82545 3.72081 1.53988 3.72081 1.18155C3.72081 0.819306 3.59552 0.532074 3.34421 0.319125C3.09356 0.106242 2.71885 0 2.22082 0L0 0L0 4.08789L3.40784 4.08789L3.40784 3.50552L0.653862 3.50552L0.653862 2.35752L2.22082 2.35752Z" fill="rgb(0,0,0)" fill-rule="nonzero" transform="matrix(1,0,0,-1,25.1297,28.936)" />
			<path id="path23" d="M0.923388 4.13267L4.39099 4.13267L4.39099 0.0447824L3.72605 0.0447824L3.72605 3.53907L1.56106 3.53907L1.4838 1.76399C1.47273 1.33065 1.41886 0.984482 1.32142 0.725223C1.2247 0.465631 1.09416 0.280056 0.931186 0.167834C0.768212 0.0559449 0.569458 0 0.335056 0C0.269461 0 0.207141 0.00465101 0.148033 0.0138201C0.0895799 0.0233879 0.0402356 0.03362 0 0.0447824L0 0.649544C0.0071428 0.649544 0.0155962 0.648548 0.0246394 0.646887C0.0337481 0.64496 0.0422015 0.643963 0.0493443 0.643963C0.129881 0.640309 0.194166 0.638382 0.241545 0.638382C0.370115 0.638382 0.474702 0.669942 0.555173 0.733462C0.63571 0.796914 0.699995 0.915382 0.747439 1.08913C0.794817 1.26288 0.824044 1.50832 0.835053 1.82551L0.923388 4.13267Z" fill="rgb(0,0,0)" fill-rule="nonzero" transform="matrix(1,0,0,-1,29.5282,28.9802)" />
			<path id="path25" d="M0 0L0 4.08789L3.31433 4.08789L3.31433 3.50552L0.659759 3.50552L0.659759 2.35752L3.0832 2.35752L3.0832 1.78631L0.659759 1.78631L0.659759 0.587952L3.41891 0.587952L3.41891 0L0 0Z" fill="rgb(0,0,0)" fill-rule="nonzero" transform="matrix(1,0,0,-1,35.1604,28.936)" />
			<path id="path27" d="M3.31433 4.08789L3.98444 4.08789L3.98444 0L3.31433 0L3.31433 1.74718L0.664936 1.74718L0.664936 0L0 0L0 4.08789L0.664936 4.08789L0.664936 2.34071L3.31433 2.34071L3.31433 4.08789Z" fill="rgb(0,0,0)" fill-rule="nonzero" transform="matrix(1,0,0,-1,39.5673,28.936)" />
			<path id="path29" d="M2.20392 0.599181C2.68766 0.599181 3.0604 0.725223 3.32278 0.97724C3.58444 1.22893 3.71564 1.58267 3.71564 2.03833L3.71564 2.18377C3.71564 2.64316 3.58575 2.9975 3.32534 3.24792C3.06498 3.49795 2.69159 3.62299 2.20392 3.62299C1.70975 3.62299 1.33118 3.49695 1.06945 3.24493C0.807137 2.99291 0.676601 2.63917 0.676601 2.18377L0.676601 2.03833C0.676601 1.58267 0.807137 1.22893 1.06945 0.97724C1.33118 0.725223 1.70975 0.599181 2.20392 0.599181ZM2.1935 0C1.73505 0 1.34154 0.0839172 1.01166 0.252084C0.681778 0.419852 0.430534 0.655125 0.258452 0.957507C0.086369 1.25989 0 1.61622 0 2.02717L0 2.195C0 2.60562 0.086369 2.96228 0.258452 3.26467C0.430534 3.56705 0.681778 3.80232 1.01166 3.97009C1.34154 4.13825 1.73505 4.22217 2.1935 4.22217C2.6585 4.22217 3.05588 4.13825 3.38576 3.97009C3.71564 3.80232 3.96629 3.56705 4.13903 3.26467C4.31111 2.96228 4.39682 2.60562 4.39682 2.195L4.39682 2.02717C4.39682 1.61622 4.31111 1.25989 4.13903 0.957507C3.96629 0.655125 3.71564 0.419852 3.38576 0.252084C3.05588 0.0839172 2.6585 0 2.1935 0Z" fill="rgb(0,0,0)" fill-rule="nonzero" transform="matrix(1,0,0,-1,44.6004,29.0027)" />
			<path id="path31" d="M2.21499 0.571208C2.54487 0.571208 2.77927 0.622569 2.91826 0.725223C3.05784 0.827877 3.12737 0.977905 3.12737 1.17597C3.12737 1.36254 3.05784 1.50925 2.91826 1.61556C2.77927 1.72186 2.55916 1.77515 2.25916 1.77515L0.653927 1.77515L0.653927 0.571208L2.21499 0.571208ZM2.21499 3.51668L0.653927 3.51668L0.653927 2.31281L2.25916 2.31281C2.51178 2.31281 2.7007 2.36576 2.82541 2.47233C2.94945 2.57864 3.01177 2.72508 3.01177 2.91192C3.01177 3.10607 2.9488 3.25543 2.82213 3.35974C2.69618 3.46439 2.49356 3.51668 2.21499 3.51668ZM2.83576 2.04398C3.08903 1.99528 3.31177 1.88996 3.50397 1.72745C3.69617 1.56519 3.79231 1.34772 3.79231 1.07531C3.79231 0.873589 3.73772 0.690672 3.62737 0.526492C3.5176 0.361914 3.34617 0.233281 3.11374 0.139862C2.88058 0.0467093 2.58904 0 2.23707 0L0 0L0 4.08789L2.23707 4.08789C2.54808 4.08789 2.81302 4.04118 3.03124 3.94776C3.24945 3.85461 3.41112 3.72664 3.5176 3.56439C3.62409 3.40187 3.67671 3.21796 3.67671 3.01265C3.67671 2.83724 3.63582 2.68229 3.55332 2.54801C3.47088 2.41347 3.36564 2.30523 3.23707 2.22298C3.10915 2.14105 2.9754 2.08511 2.83576 2.05514L2.83576 2.04398Z" fill="rgb(0,0,0)" fill-rule="nonzero" transform="matrix(1,0,0,-1,12.748,34.9326)" />
			<path id="path33" d="M3.48451 4.155L4.23195 4.155L2.52279 1.09172C2.37606 0.823226 2.23773 0.612004 2.10785 0.458987C1.97797 0.305969 1.83124 0.191156 1.66827 0.114813C1.50523 0.0381382 1.30458 0 1.06631 0C0.897438 0 0.732498 0.0223247 0.57149 0.0671071L0.57149 0.655059C0.729287 0.632734 0.866245 0.621506 0.983807 0.621506C1.10851 0.621506 1.21172 0.637319 1.29422 0.669211C1.37666 0.700838 1.45005 0.751135 1.51434 0.820236C1.57797 0.889336 1.64684 0.989067 1.72017 1.12003L0 4.155L0.785774 4.155L2.13773 1.67409L3.48451 4.155Z" fill="rgb(0,0,0)" fill-rule="nonzero" transform="matrix(1,0,0,-1,19.1568,35)" />
			<path id="path35" d="M3.19355 0L1.58832 2.05514L0.659759 1.19836L0.659759 0L0 0L0 4.08789L0.659759 4.08789L0.659759 1.97122L2.96236 4.08789L3.89158 4.08789L2.1104 2.45818L4.0345 0L3.19355 0Z" fill="rgb(0,0,0)" fill-rule="nonzero" transform="matrix(1,0,0,-1,24.2677,34.9326)" />
			<path id="path37" d="M2.19291 2.25121C2.48642 2.25121 2.7007 2.30516 2.83576 2.4134C2.97147 2.5217 3.03969 2.67665 3.03969 2.87837C3.03969 3.07975 2.97147 3.2347 2.83576 3.34293C2.7007 3.45117 2.48642 3.50552 2.19291 3.50552L0.659759 3.50552L0.659759 2.25121L2.19291 2.25121ZM2.20981 4.08789C2.5429 4.08789 2.82147 4.03819 3.04487 3.93946C3.26826 3.84046 3.43575 3.7006 3.54814 3.51934C3.6598 3.33835 3.71563 3.1248 3.71563 2.87837C3.71563 2.63552 3.6598 2.42463 3.54814 2.24563C3.43575 2.0663 3.26826 1.92551 3.04487 1.82279C2.82147 1.7198 2.5429 1.66884 2.20981 1.66884L0.659759 1.66884L0.659759 0L0 0L0 4.08789L2.20981 4.08789Z" fill="rgb(0,0,0)" fill-rule="nonzero" transform="matrix(1,0,0,-1,29.2074,34.9326)" />
			<path id="path39" d="M2.13773 3.34858L1.39029 1.58466L2.89618 1.58466L2.13773 3.34858ZM4.2982 0L3.5832 0L3.13255 1.02461L1.15392 1.02461L0.709104 0L0 0L1.81368 4.08789L2.46243 4.08789L4.2982 0Z" fill="rgb(0,0,0)" fill-rule="nonzero" transform="matrix(1,0,0,-1,33.1169,34.9326)" />
			<path id="path41" d="M1.91499 4.64495C1.8397 4.57226 1.74225 4.53571 1.62083 4.53571C1.49291 4.53571 1.39226 4.57226 1.31886 4.64495C1.24553 4.71763 1.20917 4.81371 1.20917 4.93351C1.20917 5.04898 1.24553 5.14247 1.31886 5.2135C1.39226 5.28426 1.49291 5.3198 1.62083 5.3198C1.74553 5.3198 1.84488 5.28426 1.91761 5.2135C1.99094 5.14247 2.02797 5.04898 2.02797 4.93351C2.02797 4.81371 1.99035 4.71763 1.91499 4.64495ZM1.34095 4.08789L0.676011 4.08789L0.676011 0L1.34095 0L1.34095 4.08789ZM0.703271 4.64495C0.629878 4.57226 0.531189 4.53571 0.40655 4.53571C0.281846 4.53571 0.183157 4.57226 0.109763 4.64495C0.0363693 4.71763 0 4.81371 0 4.93351C0 5.04898 0.0363693 5.14247 0.109763 5.2135C0.183157 5.28426 0.281846 5.3198 0.40655 5.3198C0.531189 5.3198 0.629878 5.28426 0.703271 5.2135C0.776665 5.14247 0.813035 5.04898 0.813035 4.93351C0.813035 4.81371 0.776665 4.71763 0.703271 4.64495Z" fill="rgb(0,0,0)" fill-rule="nonzero" transform="matrix(1,0,0,-1,37.7504,34.9326)" />
			<path id="path43" d="M3.31433 4.08789L3.98451 4.08789L3.98451 0L3.31433 0L3.31433 1.74718L0.664936 1.74718L0.664936 0L0 0L0 4.08789L0.664936 4.08789L0.664936 2.34071L3.31433 2.34071L3.31433 4.08789Z" fill="rgb(0,0,0)" fill-rule="nonzero" transform="matrix(1,0,0,-1,40.3554,34.9326)" />
			<path id="path45" d="M0.664938 0L0 0L0 4.08789L0.664938 4.08789L0.664938 0Z" fill="rgb(0,0,0)" fill-rule="nonzero" transform="matrix(1,0,0,-1,45.5792,34.9326)" />
		</g>
	</g>
</svg>
