<svg viewBox="0 0 64 34" xmlns="http://www.w3.org/2000/svg" xmlns:xlink="http://www.w3.org/1999/xlink" width="64.000000" height="34.000000" fill="none">
	<rect id="icon" width="64.000000" height="34.000000" x="0.000000" y="0.000000" />
	<g id="Group 1632526420">
		<path id="Vector" d="M30.6948 18.3602L30.6948 23.9744L28.8948 23.9744L28.8948 10.0898L33.5748 10.0898C34.7148 10.0898 35.7948 10.5124 36.6348 11.2972C37.4748 12.0216 37.8948 13.1082 37.8948 14.2552C37.8948 15.4022 37.4748 16.4284 36.6348 17.2132C35.7948 17.998 34.7748 18.4206 33.5748 18.4206L30.6948 18.3602ZM30.6948 11.7801L30.6948 16.6095L33.6948 16.6095C34.3548 16.6095 35.0148 16.3681 35.4348 15.8851C36.3948 14.9796 36.3948 13.4704 35.4948 12.5649L35.4348 12.5045C34.9548 12.0216 34.3548 11.7198 33.6948 11.7801L30.6948 11.7801Z" fill="rgb(95,99,104)" fill-rule="nonzero" />
		<path id="Vector" d="M42.0348 14.1948C43.3548 14.1948 44.3748 14.557 45.1548 15.2814C45.9348 16.0058 46.2948 16.9717 46.2948 18.1791L46.2948 23.9744L44.6148 23.9744L44.6148 22.6463L44.5548 22.6463C43.8348 23.7329 42.8148 24.2762 41.6148 24.2762C40.5948 24.2762 39.6948 23.9744 38.9748 23.3707C38.3148 22.767 37.8948 21.9219 37.8948 21.0163C37.8948 20.0505 38.2548 19.2657 38.9748 18.662C39.6948 18.0583 40.7148 17.8169 41.9148 17.8169C42.9948 17.8169 43.8348 17.998 44.4948 18.4205L44.4948 17.998C44.4948 17.3943 44.2548 16.7906 43.7748 16.4284C43.2948 16.0058 42.6948 15.7644 42.0348 15.7644C41.0148 15.7644 40.2348 16.187 39.6948 17.0321L38.1348 16.0662C39.0948 14.7985 40.3548 14.1948 42.0348 14.1948ZM39.7548 21.0767C39.7548 21.5597 39.9948 21.9822 40.3548 22.2237C40.7748 22.5255 41.2548 22.7066 41.7348 22.7066C42.4548 22.7066 43.1748 22.4048 43.7148 21.8615C44.3148 21.3182 44.6148 20.6541 44.6148 19.9297C44.0748 19.5072 43.2948 19.2657 42.2748 19.2657C41.5548 19.2657 40.9548 19.4468 40.4748 19.809C39.9948 20.1108 39.7548 20.5334 39.7548 21.0767Z" fill="rgb(95,99,104)" fill-rule="nonzero" />
		<path id="Vector" d="M56.015 14.4966L50.075 28.2L48.275 28.2L50.495 23.431L46.595 14.5569L48.515 14.5569L51.335 21.3785L51.395 21.3785L54.155 14.5569L56.015 14.5569L56.015 14.4966Z" fill="rgb(95,99,104)" fill-rule="nonzero" />
		<path id="Vector" d="M23.5548 17.1529C23.5548 16.6096 23.4948 16.0663 23.4348 15.5229L15.9348 15.5229L15.9348 18.6017L20.1948 18.6017C20.0148 19.5676 19.4748 20.4731 18.6348 21.0164L18.6348 23.0085L21.2148 23.0085C22.7148 21.6201 23.5548 19.5676 23.5548 17.1529Z" fill="rgb(66,133,244)" fill-rule="nonzero" />
		<path id="Vector" d="M15.935 24.9403C18.095 24.9403 19.895 24.2159 21.215 23.0085L18.635 21.0164C17.915 21.4993 17.015 21.8012 15.935 21.8012C13.895 21.8012 12.095 20.4127 11.495 18.481L8.85498 18.481L8.85498 20.5335C10.235 23.25 12.935 24.9403 15.935 24.9403Z" fill="rgb(52,168,83)" fill-rule="nonzero" />
		<path id="Vector" d="M11.495 18.4808C11.135 17.515 11.135 16.4284 11.495 15.4021L11.495 13.3496L8.855 13.3496C7.715 15.5832 7.715 18.2394 8.855 20.5333L11.495 18.4808Z" fill="rgb(251,188,4)" fill-rule="nonzero" />
		<path id="Vector" d="M15.9348 12.1424C17.0748 12.1424 18.1548 12.5649 18.9948 13.3497L21.2748 11.0557C19.8348 9.72766 17.9148 8.94288 15.9948 9.00325C12.9948 9.00325 10.2348 10.6935 8.91479 13.4101L11.5548 15.4626C12.0948 13.5308 13.8948 12.1424 15.9348 12.1424Z" fill="rgb(234,67,53)" fill-rule="nonzero" />
	</g>
</svg>
