<svg viewBox="0 0 24 24" xmlns="http://www.w3.org/2000/svg" xmlns:xlink="http://www.w3.org/1999/xlink" width="24.000000" height="24.000000" fill="none">
	<rect id="icon" width="24.000000" height="24.000000" x="0.000000" y="0.000000" />
	<path id="Vector" d="M17.9939 0C17.7951 5.2258e-05 17.6008 0.0593114 17.4359 0.170201C17.271 0.281091 17.143 0.438572 17.0682 0.622512C16.9933 0.806452 16.9752 1.00849 17.0159 1.2028C17.0567 1.39711 17.1546 1.57487 17.2971 1.71333L20.5881 4.99966L1.01365 4.99966C0.881215 4.99779 0.749729 5.02222 0.626832 5.07153C0.503936 5.12085 0.392081 5.19406 0.297766 5.28692C0.203452 5.37977 0.128559 5.49042 0.0774416 5.61243C0.0263238 5.73444 -2.53121e-16 5.86538 1.73371e-18 5.99764C-2.2885e-16 6.1299 0.0263238 6.26084 0.0774416 6.38285C0.128559 6.50486 0.203452 6.61551 0.297766 6.70836C0.392081 6.80122 0.503936 6.87443 0.626832 6.92375C0.749729 6.97306 0.881215 6.99749 1.01365 6.99562L20.5881 6.99562L17.2971 10.2819C17.2012 10.3739 17.1246 10.4841 17.0718 10.6059C17.0191 10.7278 16.9912 10.859 16.9899 10.9918C16.9885 11.1245 17.0137 11.2562 17.064 11.3792C17.1142 11.5021 17.1885 11.6138 17.2826 11.7077C17.3766 11.8016 17.4884 11.8758 17.6115 11.926C17.7346 11.9761 17.8665 12.0013 17.9995 11.9999C18.1325 11.9986 18.2638 11.9708 18.3859 11.9181C18.5079 11.8654 18.6182 11.7889 18.7103 11.6932L23.7074 6.70325C23.8947 6.51608 24 6.26228 24 5.99764C24 5.733 23.8947 5.4792 23.7074 5.29204L18.7103 0.302124C18.6172 0.206522 18.5058 0.130531 18.3828 0.0786393C18.2597 0.0267475 18.1275 7.74813e-06 17.9939 0Z" fill="rgb(24,42,66)" fill-rule="nonzero" transform="matrix(-1,0,0,1,24,6)" />
</svg>
