<svg viewBox="0 0 44 18" xmlns="http://www.w3.org/2000/svg" xmlns:xlink="http://www.w3.org/1999/xlink" width="44.000000" height="18.000000" fill="none" customFrame="#000000">
	<defs>
		<clipPath id="clipPath_0">
			<rect width="9.000000" height="18.000000" x="0.000000" y="0.000000" fill="rgb(255,255,255)" />
		</clipPath>
		<clipPath id="clipPath_1">
			<rect width="32.000000" height="18.000000" x="9.000000" y="0.000000" fill="rgb(255,255,255)" />
		</clipPath>
		<clipPath id="clipPath_2">
			<rect width="3.000000" height="18.000000" x="41.000000" y="0.000000" fill="rgb(255,255,255)" />
		</clipPath>
	</defs>
	<rect id="discount-tag" width="44.000000" height="18.000000" x="0.000000" y="0.000000" />
	<g id="icon" clip-path="url(#clipPath_0)" customFrame="url(#clipPath_0)">
		<rect id="icon" width="9.000000" height="18.000000" x="0.000000" y="0.000000" />
		<path id="Vector" d="M2.65411 1.32L7.63264 7.0189C8.51328 8.186 8.51328 9.814 7.63264 10.9811L2.65411 16.68C2.03234 17.5072 1.03885 18 0 18L0 0C1.03885 0 2.03234 0.4928 2.65411 1.32ZM1.10634 9C1.10634 9.9108 1.8498 10.65 2.76585 10.65C3.6819 10.65 4.42536 9.9108 4.42536 9C4.42536 8.0892 3.6819 7.35 2.76585 7.35C1.8498 7.35 1.10634 8.0892 1.10634 9Z" fill="rgb(255,39.3125,65.195)" fill-rule="evenodd" transform="matrix(-1,0,0,1,9,0)" />
	</g>
	<g id="Group 1632526422">
		<g id="Frame 1632523747" customFrame="url(#clipPath_1)">
			<rect id="Frame 1632523747" width="32.000000" height="18.000000" x="9.000000" y="0.000000" fill="rgb(255,39.3125,65.195)" />
			<path id="35%" d="M16.5029 7.50635C16.945 7.64307 17.3415 7.84587 17.6924 8.11475C18.0479 8.37907 18.3418 8.73454 18.5742 9.18115C18.8112 9.62777 18.9297 10.1245 18.9297 10.6714C18.9297 11.3413 18.7474 11.952 18.3828 12.5034C18.0228 13.0549 17.5374 13.4855 16.9268 13.7954C16.3161 14.1053 15.6484 14.2603 14.9238 14.2603C13.8574 14.2603 12.7773 14.0142 11.6836 13.522L11.7451 11.5259C12.6748 11.9907 13.6706 12.2231 14.7324 12.2231C15.3568 12.2231 15.8604 12.0522 16.2432 11.7104C16.6305 11.3687 16.8242 10.9631 16.8242 10.4937C16.8242 9.94222 16.5667 9.49561 16.0518 9.15381C15.5368 8.81201 14.7734 8.58643 13.7617 8.47705L13.7617 7.9917L15.6143 5.43506L12.1416 5.43506L12.1416 3.53467L18.54 3.53467L18.54 4.77881L16.5029 7.50635ZM23.3186 14.2603C22.6669 14.2603 22.0859 14.1919 21.5755 14.0552C21.0651 13.923 20.5569 13.7453 20.0511 13.522L20.1126 11.5259C20.9648 11.9862 21.9514 12.2163 23.0725 12.2163C23.4508 12.2163 23.7971 12.1548 24.1116 12.0317C24.4306 11.9041 24.6949 11.6968 24.9046 11.4097C25.1188 11.1226 25.2259 10.7785 25.2259 10.3774C25.2259 9.83512 25.0413 9.39762 24.6721 9.06494C24.3076 8.73226 23.804 8.56592 23.1614 8.56592C22.7011 8.56592 22.2591 8.62972 21.8352 8.75732C21.416 8.88493 21.1175 9.03076 20.9397 9.19482L20.0511 8.64111L20.803 3.53467L26.6067 3.53467L26.6067 5.35303L22.4505 5.35303L22.1429 7.34912C22.2841 7.2124 22.4892 7.09847 22.7581 7.00732C23.027 6.91162 23.3186 6.86377 23.6331 6.86377C24.7451 6.86377 25.6406 7.19645 26.3196 7.86182C26.9986 8.52718 27.3382 9.37712 27.3382 10.4116C27.3382 11.1453 27.1604 11.8084 26.805 12.4009C26.4541 12.9888 25.971 13.4468 25.3557 13.7749C24.7451 14.0985 24.066 14.2603 23.3186 14.2603ZM31.7271 14.3218L30.23 13.5356L36.3755 3.50732L37.9 4.29346L31.7271 14.3218ZM30.6539 8.80518C29.8609 8.80518 29.1955 8.55452 28.6578 8.05322C28.12 7.54736 27.8511 6.92529 27.8511 6.18701C27.8511 5.43962 28.12 4.81299 28.6578 4.30713C29.1955 3.80127 29.8655 3.54834 30.6675 3.54834C31.4651 3.54834 32.1304 3.79899 32.6636 4.30029C33.1968 4.8016 33.4634 5.42822 33.4634 6.18018C33.4634 6.92301 33.1946 7.54736 32.6568 8.05322C32.1236 8.55452 31.456 8.80518 30.6539 8.80518ZM29.9429 6.97314C30.1252 7.18278 30.3668 7.2876 30.6675 7.2876C30.9683 7.2876 31.2076 7.18506 31.3853 6.97998C31.5676 6.7749 31.6588 6.51286 31.6588 6.19385C31.6588 5.86572 31.5676 5.59456 31.3853 5.38037C31.203 5.16162 30.9615 5.05225 30.6607 5.05225C30.3599 5.05225 30.1184 5.15706 29.9361 5.3667C29.7584 5.57633 29.6695 5.84749 29.6695 6.18018C29.6695 6.49919 29.7606 6.76351 29.9429 6.97314ZM37.483 14.1646C36.69 14.1646 36.0246 13.9139 35.4869 13.4126C34.9491 12.9067 34.6802 12.2847 34.6802 11.5464C34.6802 10.799 34.9491 10.1724 35.4869 9.6665C36.0246 9.15609 36.6923 8.90088 37.4898 8.90088C38.2919 8.90088 38.9595 9.15153 39.4927 9.65283C40.0305 10.1541 40.2994 10.7808 40.2994 11.5327C40.2994 12.2801 40.0282 12.9067 39.4859 13.4126C38.9481 13.9139 38.2805 14.1646 37.483 14.1646ZM37.4966 12.647C37.7974 12.647 38.0367 12.5444 38.2144 12.3394C38.3967 12.1343 38.4879 11.8722 38.4879 11.5532C38.4879 11.2205 38.3967 10.9471 38.2144 10.7329C38.0321 10.5187 37.7906 10.4116 37.4898 10.4116C37.1936 10.4116 36.9543 10.5164 36.772 10.7261C36.5943 10.9357 36.5054 11.2069 36.5054 11.5396C36.5054 11.8586 36.5966 12.1229 36.7789 12.3325C36.9612 12.5422 37.2004 12.647 37.4966 12.647Z" opacity="0" fill="rgb(255,255,255)" fill-rule="nonzero" />
		</g>
	</g>
	<g id="icon" clip-path="url(#clipPath_2)" customFrame="url(#clipPath_2)">
		<rect id="icon" width="3.000000" height="18.000000" x="41.000000" y="0.000000" />
		<path id="Vector" d="M2.58146 0L2.58146 18C1.15778 18 0 17.0133 0 15.8L0 2.2C0 0.9867 1.15778 0 2.58146 0Z" fill="rgb(255,39.3125,65.195)" fill-rule="evenodd" transform="matrix(-1,0,0,1,43.5814,0)" />
	</g>
</svg>
