<svg viewBox="0 0 26 26" xmlns="http://www.w3.org/2000/svg" xmlns:xlink="http://www.w3.org/1999/xlink" width="26.000000" height="26.000000" fill="none">
	<rect id="Shopping Cart" width="26.000000" height="26.000000" x="0.000000" y="0.000000" fill="rgb(255,255,255)" fill-opacity="0" />
	<path id="Vector" d="M1.89585 3.25008C1.78818 3.24856 1.68129 3.26845 1.58138 3.3086C1.48147 3.34875 1.39053 3.40835 1.31385 3.48395C1.23718 3.55955 1.17629 3.64963 1.13474 3.74897C1.09318 3.8483 1.07178 3.9549 1.07178 4.06258C1.07178 4.17026 1.09318 4.27686 1.13474 4.37619C1.17629 4.47553 1.23718 4.56561 1.31385 4.64121C1.39053 4.71681 1.48147 4.77642 1.58138 4.81656C1.68129 4.85671 1.78818 4.8766 1.89585 4.87508L3.38861 4.87508C3.7829 4.87508 4.11158 5.1475 4.1863 5.53524L4.34816 6.38159L6.09482 15.555C6.41068 17.2101 7.86888 18.4167 9.5543 18.4167L19.6957 18.4167C21.3811 18.4167 22.84 17.2106 23.1552 15.555L24.9019 6.38159C24.9243 6.26414 24.9205 6.14319 24.8908 6.02737C24.861 5.91155 24.8061 5.80372 24.7299 5.71156C24.6538 5.61941 24.5582 5.5452 24.45 5.49424C24.3418 5.44328 24.2238 5.41682 24.1042 5.41675L5.81764 5.41675L5.78273 5.23161C5.56437 4.08724 4.55379 3.25008 3.38861 3.25008L1.89585 3.25008ZM6.12762 7.04175L23.1224 7.04175L21.5588 15.2514C21.3876 16.1503 20.6114 16.7917 19.6957 16.7917L9.5543 16.7917C8.63895 16.7917 7.86327 16.1503 7.69126 15.2514L7.69126 15.2503L6.12762 7.04175ZM10.8333 19.5001C10.4024 19.5001 9.98905 19.6713 9.6843 19.976C9.37955 20.2808 9.20835 20.6941 9.20835 21.1251C9.20835 21.5561 9.37955 21.9694 9.6843 22.2741C9.98905 22.5789 10.4024 22.7501 10.8333 22.7501C11.2643 22.7501 11.6777 22.5789 11.9824 22.2741C12.2871 21.9694 12.4583 21.5561 12.4583 21.1251C12.4583 20.6941 12.2871 20.2808 11.9824 19.976C11.6777 19.6713 11.2643 19.5001 10.8333 19.5001ZM18.4167 19.5001C17.9857 19.5001 17.5724 19.6713 17.2676 19.976C16.9629 20.2808 16.7917 20.6941 16.7917 21.1251C16.7917 21.5561 16.9629 21.9694 17.2676 22.2741C17.5724 22.5789 17.9857 22.7501 18.4167 22.7501C18.8477 22.7501 19.261 22.5789 19.5657 22.2741C19.8705 21.9694 20.0417 21.5561 20.0417 21.1251C20.0417 20.6941 19.8705 20.2808 19.5657 19.976C19.261 19.6713 18.8477 19.5001 18.4167 19.5001Z" fill="rgb(24,42,66)" fill-rule="nonzero" />
</svg>
