<svg viewBox="0 0 12 14" xmlns="http://www.w3.org/2000/svg" xmlns:xlink="http://www.w3.org/1999/xlink" width="12.000000" height="14.000000" fill="none">
	<rect id="Component 5" width="12.000000" height="14.000000" x="0.000000" y="0.000000" />
	<path id="add_to_wishes" d="M5.80828 1.78865C5.84525 1.76351 5.88901 1.75004 5.93382 1.75C5.97864 1.75004 6.0224 1.76351 6.05936 1.78865C6.09633 1.81379 6.12478 1.84943 6.14097 1.89088L7.51199 5.39742L11.2815 5.58828C11.3263 5.59057 11.3696 5.60626 11.4052 5.63327C11.4409 5.66032 11.4675 5.69746 11.4816 5.73981C11.4956 5.78216 11.4963 5.82773 11.4837 5.87051C11.4711 5.91317 11.4456 5.95131 11.4109 5.97948L8.47565 8.36026L9.43974 11.9728C9.45117 12.0157 9.44935 12.0613 9.43439 12.1032C9.41938 12.1451 9.39196 12.1816 9.3557 12.2077C9.31944 12.2339 9.27604 12.2486 9.23121 12.2499C9.18637 12.2512 9.1422 12.239 9.10448 12.2149L5.93382 10.196L2.76316 12.2149C2.72545 12.239 2.68127 12.2512 2.63644 12.2499C2.59161 12.2486 2.54821 12.2339 2.51195 12.2077C2.47569 12.1816 2.44826 12.1451 2.43326 12.1032C2.4183 12.0613 2.41649 12.0157 2.4279 11.9728L3.392 8.36026L0.456715 5.97948C0.422015 5.9513 0.396519 5.91322 0.383935 5.87051C0.371328 5.82773 0.372077 5.78216 0.386087 5.73981C0.400098 5.69746 0.42671 5.66032 0.462419 5.63327C0.498128 5.60622 0.541259 5.59053 0.58613 5.58828L4.35566 5.39742L5.72667 1.89088C5.74287 1.84943 5.77132 1.81379 5.80828 1.78865Z" fill="rgb(67,160,253)" fill-rule="evenodd" />
</svg>
